<?xml version="1.0" encoding="UTF-8"?>
<svg id="Layer_2" data-name="Layer 2" xmlns="http://www.w3.org/2000/svg" xmlns:xlink="http://www.w3.org/1999/xlink" viewBox="0 0 164.2 164.2">
  <defs>
    <style>
      .cls-1 {
        fill: url(#linear-gradient);
      }
    </style>
    <linearGradient id="linear-gradient" x1="17.91" y1="116.01" x2="163.11" y2="39.31" gradientUnits="userSpaceOnUse">
      <stop offset=".24" stop-color="#2e7e7f"/>
      <stop offset=".98" stop-color="#6b6ab0"/>
    </linearGradient>
  </defs>
  <g id="Layer_1-2" data-name="Layer 1">
    <path class="cls-1" d="M145.28,75.71c-4.04,2.07-9.78,5.04-15.41,6.76-11.26,3.42-22.24-6.1-30.86-1.35,14.99-20.1,29.29.04,44.57-7.52-10.76,1.39-18.3-2.41-18.3-2.41,8.92-1.18,13.99-4.72,18.3-6.36,5.72-2.18,10.68-.25,13.9-3.87-6.03,2.2-12.61,1.6-16.72,3.3,0,0,6.12-7.75,19.14-8.38C148.95,23.39,118.27,0,82.1,0S17.07,22.03,5.32,53.01c11.37,1.54,15.56,8.12,15.56,8.12-4.11-1.69-8.33-1.08-14.36-3.28,3.22,3.62,8.86,2.75,14.58,4.93,4.31,1.64,7.86,6.77,16.25,8.41,0,0-5.54,2.44-16.21.25,7.39,6.25,34.41-6.65,44.61,10.57-8.62-4.75-19.44,2.51-30.7-.91-5.63-1.71-10.13-5.19-14.17-7.26-7.81-4-13.16-5.76-17.79-14.05-2,7.1-3.09,14.57-3.09,22.31,0,45.34,36.76,82.1,82.1,82.1s82.1-36.76,82.1-82.1c0-6.79-.84-13.39-2.4-19.7-4,8.48-8.56,9.22-16.53,13.31ZM125.69,33.79c.39,19.73-16.75,15.66-16.75,15.66,0,0,9.78-6.35,8.07-11.23-2.12,5.63-9.53,10.38-9.53,10.38,0,0,.46-16.37,18.21-14.82ZM149.21,55.19c-11.67,5.85-4.75,6.03-18.56,11.92-10.74,4.58-19.41-2.3-31.84,9.71,8.43-28.01,41.81-21.7,50.4-21.63ZM99.69,67.11c-1.73,1.4-3.73,2.73-5.7,4.03-3.61,2.39-7.05,4.66-8.98,7.39-.99-1.12-2.93-2.85-2.93-2.89.39-4.08,3.18-8.1,7.07-10.76,4.9-1.54,10.29-4.18,13.69-12.26.28,5.92-1.17,10.6-3.16,14.49ZM90.31,87.84s-1.55-5.14-3.29-7.4c1.64-2.62,4.44-5.41,8.11-7.83.82-.54-5.34,5.91-4.82,15.23ZM81.45,69.61c-.79-1.33-2-2.46-3.63-4.18,1.24.23,2.59.37,4.02.37.88,0,1.78-.06,2.71-.18-1.31,1.41-2.35,2.32-3.09,3.99ZM97.66,39.48s1.8,8.91-3.3,15.26c-2.32-8.22,3.3-15.26,3.3-15.26ZM99.79,39.41c1.54,3.92,1.82,6.63,2.22,9.81-2.42,5.62-3.75,8.6-8.93,10.81,5.21-4.82,6.55-8.21,6.71-20.62ZM88.64,32.93c2.09,0,3.79,1.69,3.79,3.79s-1.69,3.79-3.79,3.79-3.79-1.69-3.79-3.79,1.69-3.79,3.79-3.79ZM87.5,55.21c0,3.84-3.11,6.95-6.95,6.95s-6.95-3.11-6.95-6.95,3.11-6.95,6.95-6.95,6.95,3.11,6.95,6.95ZM71.95,32.93c2.09,0,3.79,1.69,3.79,3.79s-1.69,3.79-3.79,3.79-3.79-1.69-3.79-3.79,1.69-3.79,3.79-3.79ZM73.85,64.8c3.85,2.64,6.04,5.68,6.7,6.86-.16.54-.34,1.45-.44,2.02-1.23-1.02-2.32-1.67-3.53-2.62-3.84-2.98-7.25-5.61-8.59-8.88,1.9,1.08,3.88,1.96,5.86,2.61ZM62.44,38.78s5.41,2.16,3.48,14.8c-5.46-5.99-3.48-14.8-3.48-14.8ZM60.71,37.65c-1.08,11.16,1.1,15.51,4.63,20.18-4.74-3.19-6.95-5.48-7.91-8.41.31-3.66,1.31-7.59,3.28-11.77ZM61.3,57.28c1.36,1.28,2.86,2.47,4.44,3.53.84,4.76,5.07,9.27,9.82,12.59,10.7,7.49,13.02,14.13,13.44,17.92.44,3.87.31,7.69-4.74,13.58-.01.01-1.8-2.3-2.71-3.29-.07-.08,4.81-4.13,4.01-11.84-.88-8.49-9.64-13.47-13.48-16.02-5.35-3.55-15.04-9.73-14.74-21.19.96,1.53,2.3,3.14,3.97,4.72ZM81.94,96.11c-.24,1.5-1.06,3.1-2.22,3.89-4.55-4.48-2.26-4.19-5.91-15.26,5.79,3.71,7.82,10.71,8.13,11.37ZM70.11,75.58c6.22,5.59,14.79,8.09,13.2,17.7-5.02-10.47-7.13-8.01-13.2-17.7ZM50.32,49.47s-7.41-4.75-9.53-10.38c-1.72,4.88,8.66,11.63,8.66,11.63,0,0-18.93,2.94-18.54-16.79,19.85-1.84,19.41,15.54,19.41,15.54ZM36.85,67.98c-13.81-5.89-12.59-9.44-24.26-15.3,9.97,1.26,40.14-3.66,53.98,26.18-13.25-13.51-18.98-6.31-29.72-10.89ZM6.52,74.91c5.13,2.81,10.7.54,15.18,2.33,4.59,1.84,10,5.97,16.66,7.48-6.37,3.07-16.74.26-19.06.99,19.91,7.88,25.9-8.07,47.88-.95-38.96,29.95-60.21-1.53-60.66-9.85ZM41.04,106.48c3.8-7.74,19.11-12.02,27.02-20.77,0,0-4.07,21.42-27.02,20.77ZM76.48,138.39c-11.76-15.1-10.89-29.33-4.39-38.03.82,2.73,2.18,4.4,3.94,6.82-8.47,12.49,2.23,23.77.46,31.21ZM81.61,133.88s-.98,2.76-2.66,4c.67-13.38-8.29-17.74-1.68-29.17.14.15,1.74,2.3,2.57,3.32-4.72,7.65,3.12,14.58,1.76,21.85ZM81.77,114.48c4.87,6.89,4.42,13.51,2.07,17.63.42-6.35-5.31-11.07-2.07-17.63ZM83.28,155.44c-.29-4.48-2.48-9.7-4.35-13.37,22.64-23.3-5.3-33.83-5.3-43.38.11-.55.71-1.62.94-1.8,14.58,18.42,25.69,28.81,8.71,58.55ZM94.05,134.34c1.97-15.53-7.58-26.9-8.14-27.57,3.48-3.02,4.55-7.22,4.78-8.81,1.84,2.92,4.68,7.25,5.89,15.57.57,3.92.12,14.74-2.53,20.81ZM97.96,83.67c7.91,8.74,24.04,16.11,27.84,23.85-22.95.66-27.84-23.85-27.84-23.85ZM100.26,82.72c22.25-.68,30.19,13.78,49.14,5.06-2.33-.73-14.69,2.7-22.23-1.57,6.65-1.51,13.38-4.36,17.97-6.19,4.48-1.79,9.76,1.53,14.89-1.28-.45,8.32-24.73,38.76-59.77,3.99Z"/>
  </g>
</svg>