<?xml version="1.0" encoding="UTF-8"?>
<svg id="Layer_2" data-name="Layer 2" xmlns="http://www.w3.org/2000/svg" xmlns:xlink="http://www.w3.org/1999/xlink" viewBox="0 0 639.49 164.2">
  <defs>
    <style>
      .cls-1 {
        fill: #113457;
      }

      .cls-2 {
        fill: #2e7e7f;
      }

      .cls-3 {
        fill: url(#linear-gradient);
      }
    </style>
    <linearGradient id="linear-gradient" x1="17.91" y1="116.01" x2="163.11" y2="39.31" gradientUnits="userSpaceOnUse">
      <stop offset=".24" stop-color="#2e7e7f"/>
      <stop offset=".98" stop-color="#6b6ab0"/>
    </linearGradient>
  </defs>
  <g id="Layer_1-2" data-name="Layer 1">
    <g>
      <g>
        <polygon class="cls-2" points="253.17 74.58 253.17 65.39 271.34 65.39 271.34 57.55 253.17 57.55 253.17 48.37 273.7 48.37 273.7 40.52 253.17 40.52 245.02 40.52 245.02 48.37 245.02 57.55 245.02 65.39 245.02 74.58 245.02 82.42 253.17 82.42 274.32 82.42 274.32 74.58 253.17 74.58"/>
        <polygon class="cls-2" points="291.04 74.58 291.04 40.52 282.89 40.52 282.89 74.58 282.89 82.42 291.04 82.42 310.65 82.42 310.65 74.58 291.04 74.58"/>
        <polygon class="cls-2" points="327.59 74.58 327.59 40.52 319.44 40.52 319.44 74.58 319.44 82.42 327.59 82.42 347.2 82.42 347.2 74.58 327.59 74.58"/>
        <polygon class="cls-2" points="381.93 48.37 381.93 40.52 364.14 40.52 355.99 40.52 355.99 48.37 355.99 58.12 355.99 65.96 355.99 82.42 364.14 82.42 364.14 65.96 379.23 65.96 379.23 58.12 364.14 58.12 364.14 48.37 381.93 48.37"/>
        <path class="cls-2" d="M408.83,40.06c-11.81,0-21.39,9.58-21.39,21.39s9.58,21.39,21.39,21.39,21.39-9.58,21.39-21.39-9.58-21.39-21.39-21.39ZM408.83,74.84c-7.39,0-13.03-5.99-13.03-13.39s5.63-13.39,13.03-13.39,13.03,5.99,13.03,13.39-5.63,13.39-13.03,13.39Z"/>
        <polygon class="cls-2" points="512.51 49.65 499.18 68.47 485.85 49.65 477.7 38.14 477.7 52.25 477.7 82.42 485.85 82.42 485.85 63.76 494.19 75.53 499.18 82.58 504.17 75.53 512.51 63.75 512.51 82.42 520.66 82.42 520.66 52.24 520.66 38.14 512.51 49.65"/>
        <polygon class="cls-2" points="584.81 49.65 571.48 68.47 558.15 49.65 550 38.14 550 52.25 550 82.42 558.15 82.42 558.15 63.76 566.49 75.53 571.48 82.58 576.47 75.53 584.81 63.75 584.81 82.42 592.96 82.42 592.96 52.24 592.96 38.14 584.81 49.65"/>
        <polygon class="cls-2" points="229.04 40.56 221.95 63.83 212.75 41.11 204.49 41.11 207.68 49.3 201.53 64.4 192.97 40.52 183.5 40.52 200.3 84.1 211.8 59.29 222.01 84.1 238.19 40.45 229.04 40.56"/>
        <path class="cls-2" d="M461.21,82.42h9.51l-10.04-15.27c4.27-2.46,7.15-7.08,7.15-12.36h0c0-7.88-6.39-14.26-14.26-14.26h-15.29v41.9h8.15v-13.37h6.23c1.78,2.72,8.55,13.37,8.55,13.37ZM446.43,48.2h6.5c3.64,0,6.58,2.95,6.58,6.58h0c0,3.64-2.95,6.58-6.58,6.58h-6.5v-13.17Z"/>
        <path class="cls-2" d="M618.54,40.52h-14.77v41.9h14.77c11.57,0,20.95-9.38,20.95-20.95h0c0-11.57-9.38-20.95-20.95-20.95ZM631.4,61.35c0,7.18-5.82,13-13,13h-6.48v-26h6.48c7.18,0,13,5.82,13,13h0Z"/>
        <polygon class="cls-1" points="245.96 121.15 245.96 116.48 255.2 116.48 255.2 112.5 245.96 112.5 245.96 107.83 256.4 107.83 256.4 103.84 245.96 103.84 241.82 103.84 241.82 107.83 241.82 112.5 241.82 116.48 241.82 121.15 241.82 125.14 245.96 125.14 256.71 125.14 256.71 121.15 245.96 121.15"/>
        <polygon class="cls-1" points="345.04 121.15 345.04 103.84 340.9 103.84 340.9 121.15 340.9 125.14 345.04 125.14 355.01 125.14 355.01 121.15 345.04 121.15"/>
        <polygon class="cls-1" points="264.8 103.84 260.65 103.84 260.65 121.15 260.65 125.14 264.8 125.14 264.8 103.84"/>
        <polygon class="cls-1" points="554.83 103.84 554.83 116.89 544.4 107.12 540.9 103.84 540.26 103.24 540.26 103.84 540.26 109.8 540.26 125.14 544.4 125.14 544.4 113.4 554.83 122.46 557.9 125.14 558.97 126.06 558.97 125.14 558.97 120.77 558.97 103.84 554.83 103.84"/>
        <polygon class="cls-1" points="305.43 103.85 305.43 112.61 296.27 112.61 296.27 103.85 292.13 103.85 292.13 121.16 292.13 125.15 296.27 125.15 296.27 116.4 305.43 116.4 305.43 121.16 305.43 125.15 309.57 125.15 309.57 103.85 305.43 103.85"/>
        <polygon class="cls-1" points="327.79 103.84 322.79 103.84 318.65 103.84 313.66 103.84 313.66 107.38 313.66 108.2 318.65 108.2 318.65 121.15 318.65 125.14 322.79 125.14 322.79 108.2 327.79 108.2 327.79 103.84"/>
        <polygon class="cls-1" points="507.79 121.15 507.79 103.84 503.65 103.84 503.65 121.15 503.65 125.14 507.79 125.14 517.76 125.14 517.76 121.15 507.79 121.15"/>
        <polygon class="cls-1" points="525.79 121.15 525.79 103.84 521.64 103.84 521.64 121.15 521.64 125.14 525.79 125.14 535.76 125.14 535.76 121.15 525.79 121.15"/>
        <path class="cls-1" d="M367.85,103.62c-6.01,0-10.87,4.87-10.87,10.87s4.87,10.87,10.87,10.87,10.87-4.87,10.87-10.87-4.87-10.87-10.87-10.87ZM367.85,121.29c-3.76,0-6.62-3.05-6.62-6.81s2.86-6.81,6.62-6.81,6.62,3.05,6.62,6.81-2.86,6.81-6.62,6.81Z"/>
        <polygon class="cls-1" points="234.12 103.86 230.52 115.69 225.84 104.14 221.65 104.14 223.26 108.3 220.14 115.98 215.79 103.84 210.98 103.84 219.51 125.99 225.36 113.38 230.55 125.99 238.78 103.8 234.12 103.86"/>
        <polygon class="cls-1" points="488.81 121.15 488.81 116.48 498.04 116.48 498.04 112.5 488.81 112.5 488.81 107.83 499.24 107.83 499.24 103.84 488.81 103.84 484.66 103.84 484.66 107.83 484.66 112.5 484.66 116.48 484.66 121.15 484.66 125.14 488.81 125.14 499.56 125.14 499.56 121.15 488.81 121.15"/>
        <polygon class="cls-1" points="568.53 121.15 568.53 116.48 577.77 116.48 577.77 112.5 568.53 112.5 568.53 107.83 578.97 107.83 578.97 103.84 568.53 103.84 564.39 103.84 564.39 107.83 564.39 112.5 564.39 116.48 564.39 121.15 564.39 125.14 568.53 125.14 579.28 125.14 579.28 121.15 568.53 121.15"/>
        <polygon class="cls-1" points="476.97 103.86 473.37 115.69 468.69 104.14 464.49 104.14 466.11 108.3 462.99 115.98 458.63 103.84 453.82 103.84 462.36 125.99 468.21 113.38 473.4 125.99 481.62 103.8 476.97 103.86"/>
        <path class="cls-1" d="M286.57,114.49h-6.62v3.56h3.54v2.34c-1.01.65-2.22,1.03-3.54,1.03-3.76,0-6.62-3.05-6.62-6.81s2.86-6.81,6.62-6.81c1.75,0,3.31.66,4.47,1.75l2.08-3.63c-1.82-1.38-4.09-2.19-6.55-2.19-6,0-10.87,4.87-10.87,10.87s4.87,10.87,10.87,10.87c2.94,0,5.61-1.17,7.56-3.06h0v-7.93h-.95Z"/>
        <path class="cls-1" d="M388.53,103.62c.5,0,1.1.05,1.59.13,1.88.3,3.8.93,5.46,2.44l-1.72,3.28c-.81-.82-2.44-1.78-4.76-2.01-1.05-.11-2.16.16-2.63,1.22-.78,1.75.56,3.17,1.89,3.69,2.34.91,4.08,1.56,5.68,3.2,2.48,2.54,1.61,7.57-1.91,9.12-3.57,1.58-8.96.69-11.31-2.42l2.86-2.76c1.99,1.98,3.6,2.21,5.62,2.01,1.53-.15,2.49-2.02,1.63-3.54-.73-1.29-3.82-1.94-5.38-2.86-2.42-1.43-3.61-4.01-3.24-6.53.46-3.17,3.18-4.94,6.2-4.97Z"/>
        <path class="cls-1" d="M405.29,103.62c.5,0,1.1.05,1.59.13,1.88.3,3.8.93,5.46,2.44l-1.72,3.28c-.81-.82-2.44-1.78-4.76-2.01-1.05-.11-2.16.16-2.63,1.22-.78,1.75.56,3.17,1.89,3.69,2.34.91,4.08,1.56,5.68,3.2,2.48,2.54,1.61,7.57-1.91,9.12-3.57,1.58-8.96.69-11.31-2.42l2.86-2.76c1.99,1.98,3.6,2.21,5.62,2.01,1.53-.15,2.49-2.02,1.63-3.54-.73-1.29-3.82-1.94-5.38-2.86-2.42-1.43-3.61-4.01-3.24-6.53.46-3.17,3.18-4.94,6.2-4.97Z"/>
        <path class="cls-1" d="M588.84,103.62c.5,0,1.1.05,1.59.13,1.88.3,3.8.93,5.46,2.44l-1.72,3.28c-.81-.82-2.44-1.78-4.76-2.01-1.05-.11-2.16.16-2.63,1.22-.78,1.75.56,3.17,1.89,3.69,2.34.91,4.08,1.56,5.68,3.2,2.48,2.54,1.61,7.57-1.91,9.12-3.57,1.58-8.96.69-11.31-2.42l2.86-2.76c1.99,1.98,3.6,2.21,5.62,2.01,1.53-.15,2.49-2.02,1.63-3.54-.73-1.29-3.82-1.94-5.38-2.86-2.42-1.43-3.61-4.01-3.24-6.53.46-3.17,3.18-4.94,6.2-4.97Z"/>
        <path class="cls-1" d="M605.6,103.62c.5,0,1.1.05,1.59.13,1.88.3,3.8.93,5.46,2.44l-1.72,3.28c-.81-.82-2.44-1.78-4.76-2.01-1.05-.11-2.16.16-2.63,1.22-.78,1.75.56,3.17,1.89,3.69,2.34.91,4.08,1.56,5.68,3.2,2.48,2.54,1.61,7.57-1.91,9.12-3.57,1.58-8.96.69-11.31-2.42l2.86-2.76c1.99,1.98,3.6,2.21,5.62,2.01,1.53-.15,2.49-2.02,1.63-3.54-.73-1.29-3.82-1.94-5.38-2.86-2.42-1.43-3.61-4.01-3.24-6.53.46-3.17,3.18-4.94,6.2-4.97Z"/>
        <path class="cls-1" d="M443.18,124.98h-4.49l-1.75-2.16c-1.02,1.22-2.31,2.13-3.78,2.44-4.55.95-9.76-1.63-9.13-6.85.32-2.69,2.63-4.16,4.71-5.51-.43-.71-.85-1.45-1.12-2.25-2.07-6.13,4.76-8.78,9.3-5.82.24.16,1.24.89,1.34,1.09.07.14-1.36,2.33-1.54,2.63-.84-.72-1.8-1.45-2.93-1.63-3.28-.52-3.31,2.75-1.65,4.63l4.28,5.21s.55-.68,1.09-4.12h3.64c-.32,4.25-2.29,7.14-2.29,7.14l4.34,5.21ZM428.13,119.69c1.15,3.2,5.44,2.01,6.42.22l-3.68-4.3c-3.18,1.6-3.07,3.16-2.74,4.07Z"/>
      </g>
      <path class="cls-3" d="M145.28,75.71c-4.04,2.07-9.78,5.04-15.41,6.76-11.26,3.42-22.24-6.1-30.86-1.35,14.99-20.1,29.29.04,44.57-7.52-10.76,1.39-18.3-2.41-18.3-2.41,8.92-1.18,13.99-4.72,18.3-6.36,5.72-2.18,10.68-.25,13.9-3.87-6.03,2.2-12.61,1.6-16.72,3.3,0,0,6.12-7.75,19.14-8.38C148.95,23.39,118.27,0,82.1,0S17.07,22.03,5.32,53.01c11.37,1.54,15.56,8.12,15.56,8.12-4.11-1.69-8.33-1.08-14.36-3.28,3.22,3.62,8.86,2.75,14.58,4.93,4.31,1.64,7.86,6.77,16.25,8.41,0,0-5.54,2.44-16.21.25,7.39,6.25,34.41-6.65,44.61,10.57-8.62-4.75-19.44,2.51-30.7-.91-5.63-1.71-10.13-5.19-14.17-7.26-7.81-4-13.16-5.76-17.79-14.05-2,7.1-3.09,14.57-3.09,22.31,0,45.34,36.76,82.1,82.1,82.1s82.1-36.76,82.1-82.1c0-6.79-.84-13.39-2.4-19.7-4,8.48-8.56,9.22-16.53,13.31ZM125.69,33.79c.39,19.73-16.75,15.66-16.75,15.66,0,0,9.78-6.35,8.07-11.23-2.12,5.63-9.53,10.38-9.53,10.38,0,0,.46-16.37,18.21-14.82ZM149.21,55.19c-11.67,5.85-4.75,6.03-18.56,11.92-10.74,4.58-19.41-2.3-31.84,9.71,8.43-28.01,41.81-21.7,50.4-21.63ZM99.69,67.11c-1.73,1.4-3.73,2.73-5.7,4.03-3.61,2.39-7.05,4.66-8.98,7.39-.99-1.12-2.93-2.85-2.93-2.89.39-4.08,3.18-8.1,7.07-10.76,4.9-1.54,10.29-4.18,13.69-12.26.28,5.92-1.17,10.6-3.16,14.49ZM90.31,87.84s-1.55-5.14-3.29-7.4c1.64-2.62,4.44-5.41,8.11-7.83.82-.54-5.34,5.91-4.82,15.23ZM81.45,69.61c-.79-1.33-2-2.46-3.63-4.18,1.24.23,2.59.37,4.02.37.88,0,1.78-.06,2.71-.18-1.31,1.41-2.35,2.32-3.09,3.99ZM97.66,39.48s1.8,8.91-3.3,15.26c-2.32-8.22,3.3-15.26,3.3-15.26ZM99.79,39.41c1.54,3.92,1.82,6.63,2.22,9.81-2.42,5.62-3.75,8.6-8.93,10.81,5.21-4.82,6.55-8.21,6.71-20.62ZM88.64,32.93c2.09,0,3.79,1.69,3.79,3.79s-1.69,3.79-3.79,3.79-3.79-1.69-3.79-3.79,1.69-3.79,3.79-3.79ZM87.5,55.21c0,3.84-3.11,6.95-6.95,6.95s-6.95-3.11-6.95-6.95,3.11-6.95,6.95-6.95,6.95,3.11,6.95,6.95ZM71.95,32.93c2.09,0,3.79,1.69,3.79,3.79s-1.69,3.79-3.79,3.79-3.79-1.69-3.79-3.79,1.69-3.79,3.79-3.79ZM73.85,64.8c3.85,2.64,6.04,5.68,6.7,6.86-.16.54-.34,1.45-.44,2.02-1.23-1.02-2.32-1.67-3.53-2.62-3.84-2.98-7.25-5.61-8.59-8.88,1.9,1.08,3.88,1.96,5.86,2.61ZM62.44,38.78s5.41,2.16,3.48,14.8c-5.46-5.99-3.48-14.8-3.48-14.8ZM60.71,37.65c-1.08,11.16,1.1,15.51,4.63,20.18-4.74-3.19-6.95-5.48-7.91-8.41.31-3.66,1.31-7.59,3.28-11.77ZM61.3,57.28c1.36,1.28,2.86,2.47,4.44,3.53.84,4.76,5.07,9.27,9.82,12.59,10.7,7.49,13.02,14.13,13.44,17.92.44,3.87.31,7.69-4.74,13.58-.01.01-1.8-2.3-2.71-3.29-.07-.08,4.81-4.13,4.01-11.84-.88-8.49-9.64-13.47-13.48-16.02-5.35-3.55-15.04-9.73-14.74-21.19.96,1.53,2.3,3.14,3.97,4.72ZM81.94,96.11c-.24,1.5-1.06,3.1-2.22,3.89-4.55-4.48-2.26-4.19-5.91-15.26,5.79,3.71,7.82,10.71,8.13,11.37ZM70.11,75.58c6.22,5.59,14.79,8.09,13.2,17.7-5.02-10.47-7.13-8.01-13.2-17.7ZM50.32,49.47s-7.41-4.75-9.53-10.38c-1.72,4.88,8.66,11.63,8.66,11.63,0,0-18.93,2.94-18.54-16.79,19.85-1.84,19.41,15.54,19.41,15.54ZM36.85,67.98c-13.81-5.89-12.59-9.44-24.26-15.3,9.97,1.26,40.14-3.66,53.98,26.18-13.25-13.51-18.98-6.31-29.72-10.89ZM6.52,74.91c5.13,2.81,10.7.54,15.18,2.33,4.59,1.84,10,5.97,16.66,7.48-6.37,3.07-16.74.26-19.06.99,19.91,7.88,25.9-8.07,47.88-.95-38.96,29.95-60.21-1.53-60.66-9.85ZM41.04,106.48c3.8-7.74,19.11-12.02,27.02-20.77,0,0-4.07,21.42-27.02,20.77ZM76.48,138.39c-11.76-15.1-10.89-29.33-4.39-38.03.82,2.73,2.18,4.4,3.94,6.82-8.47,12.49,2.23,23.77.46,31.21ZM81.61,133.88s-.98,2.76-2.66,4c.67-13.38-8.29-17.74-1.68-29.17.14.15,1.74,2.3,2.57,3.32-4.72,7.65,3.12,14.58,1.76,21.85ZM81.77,114.48c4.87,6.89,4.42,13.51,2.07,17.63.42-6.35-5.31-11.07-2.07-17.63ZM83.28,155.44c-.29-4.48-2.48-9.7-4.35-13.37,22.64-23.3-5.3-33.83-5.3-43.38.11-.55.71-1.62.94-1.8,14.58,18.42,25.69,28.81,8.71,58.55ZM94.05,134.34c1.97-15.53-7.58-26.9-8.14-27.57,3.48-3.02,4.55-7.22,4.78-8.81,1.84,2.92,4.68,7.25,5.89,15.57.57,3.92.12,14.74-2.53,20.81ZM97.96,83.67c7.91,8.74,24.04,16.11,27.84,23.85-22.95.66-27.84-23.85-27.84-23.85ZM100.26,82.72c22.25-.68,30.19,13.78,49.14,5.06-2.33-.73-14.69,2.7-22.23-1.57,6.65-1.51,13.38-4.36,17.97-6.19,4.48-1.79,9.76,1.53,14.89-1.28-.45,8.32-24.73,38.76-59.77,3.99Z"/>
    </g>
  </g>
</svg>